<svg xmlns="http://www.w3.org/2000/svg" width="33.645" height="52.106" viewBox="0 0 33.645 52.106"><defs><style>.a{fill:inherit;}</style></defs><g transform="translate(-342.727 -255.5)"><path class="a" d="M32.716,28.532,19,23.032a.659.659,0,0,1-.369-.364.63.63,0,0,1,.01-.508.061.061,0,0,1,.027-.028,3.747,3.747,0,0,0,2-3.295c0-.018,0-.037,0-.055v-.031a.067.067,0,0,1,.011-.037.666.666,0,0,1,.445-.262.682.682,0,0,1,.508.13l11.74,8.831a.623.623,0,0,1,.173.843.661.661,0,0,1-.564.331A.73.73,0,0,1,32.716,28.532ZM.094,28.257a.623.623,0,0,1,.173-.843l11.74-8.831a.682.682,0,0,1,.508-.13.666.666,0,0,1,.445.262.066.066,0,0,1,.011.037v.031c0,.018,0,.037,0,.055a3.747,3.747,0,0,0,2,3.295.061.061,0,0,1,.027.028.631.631,0,0,1,.01.508.658.658,0,0,1-.369.364L.929,28.532a.73.73,0,0,1-.271.055A.661.661,0,0,1,.094,28.257Zm14.089-9.423a2.64,2.64,0,1,1,2.639,2.706A2.673,2.673,0,0,1,14.183,18.834Zm4.641-3.2a3.928,3.928,0,0,0-4,0,.062.062,0,0,1-.039.008.663.663,0,0,1-.455-.244.636.636,0,0,1-.138-.494L16.16.567a.67.67,0,0,1,1.324,0L19.457,14.9a.636.636,0,0,1-.138.494.664.664,0,0,1-.455.244h-.007A.058.058,0,0,1,18.824,15.63Z" transform="translate(342.727 255.5)"/><path class="a" d="M939.232,226.08l-2.065-27.452a2.009,2.009,0,0,0-.083-.45.062.062,0,0,0-.068-.042,3.86,3.86,0,0,1-1.081,0,.061.061,0,0,0-.068.042,1.988,1.988,0,0,0-.083.45L933.72,226.08a1.622,1.622,0,0,0,.322,1.179.508.508,0,0,0,.369.178h4.13a.508.508,0,0,0,.369-.178A1.622,1.622,0,0,0,939.232,226.08Z" transform="translate(-576.926 80.17)"/></g></svg>
