<svg xmlns="http://www.w3.org/2000/svg" width="35.002" height="27.052" viewBox="0 0 35.002 27.052"><defs><style>.a{fill:inherit;}</style></defs><g transform="translate(0 -0.044)"><path class="a" d="M7895.058-229.643l-1.037,4.444,1.037,1.333h9.629l1.26-1.185v-4.592l-1.186-1.037h-8.147Zm-1.825,8.168-1.212,5.534,1.212,1.557h11.243l1.471-1.384v-5.707l-1.384-1.555h-9.515Zm25.114-8.168.807,4.444-1.037,1.333h-9.629l-1.26-1.185v-4.592l1.186-1.037h8.377Zm1.6,8.168,1.211,5.534-1.211,1.557H7908.7l-1.471-1.384v-5.707l1.384-1.555h9.515Zm0,0" transform="translate(-7889.089 232.816)"/><path class="a" d="M7866.865-257.988l-2.945-12.426-.017-.059a4.379,4.379,0,0,0-4.069-3.039h-20.393a4.675,4.675,0,0,0-4.188,3.012l-.024.073c-.022.091-2.346,9.128-3.035,12.448a4.552,4.552,0,0,0,.521,3.872,4.6,4.6,0,0,0,3.107,1.692l27.292,0,.049-.006a4.241,4.241,0,0,0,3.116-1.739,5.231,5.231,0,0,0,.587-3.83Zm-1.794,3.019a2.841,2.841,0,0,1-2.056,1.1h-27.1a3.125,3.125,0,0,1-2.032-1.1,3.208,3.208,0,0,1-.276-2.681l0-.023c.656-3.159,2.834-11.655,3.013-12.348a3.2,3.2,0,0,1,2.813-2.036h20.372a2.936,2.936,0,0,1,2.7,2.01l2.938,12.4a3.792,3.792,0,0,1-.379,2.678Zm-14.164,5.985V-251.4h-2.814v2.422l-5.574,1.141v1.326h14.223v-1.326Zm0,0" transform="translate(-7831.999 273.556)"/><path class="a" d="M35,29.969h0Z" transform="translate(0 -2.873)"/></g></svg>
