<svg id="图层_1" data-name="图层 1" xmlns="http://www.w3.org/2000/svg" viewBox="0 0 113.39 113.39"><defs><style>.cls-1{fill:inherit;}</style></defs><title>组 2430</title><path id="绿_拷贝_2" data-name="绿 拷贝 2" class="cls-1" d="M98.46,82.62,62.74,68.29a1.66,1.66,0,0,1-1-1,1.64,1.64,0,0,1,0-1.32.16.16,0,0,1,.07-.07,9.76,9.76,0,0,0,5.21-8.58v-.23a.19.19,0,0,1,0-.1,1.75,1.75,0,0,1,1.16-.68,1.78,1.78,0,0,1,1.32.34l30.58,23a1.63,1.63,0,0,1,.45,2.2,1.74,1.74,0,0,1-1.47.86A2,2,0,0,1,98.46,82.62Zm-85-.72A1.62,1.62,0,0,1,14,79.7l30.57-23a1.8,1.8,0,0,1,1.33-.33,1.71,1.71,0,0,1,1.16.68.29.29,0,0,1,0,.09v.23A9.78,9.78,0,0,0,52.24,66a.16.16,0,0,1,.07.07,1.62,1.62,0,0,1,0,1.33,1.74,1.74,0,0,1-1,.94L15.67,82.62a1.86,1.86,0,0,1-.7.14A1.73,1.73,0,0,1,13.5,81.9ZM50.19,56.64a6.88,6.88,0,1,1,6.87,7A7,7,0,0,1,50.19,56.64Zm12.09-8.29a10.24,10.24,0,0,0-10.42,0,.18.18,0,0,1-.1,0,1.71,1.71,0,0,1-1.19-.64,1.69,1.69,0,0,1-.36-1.28L55.34,9.11a1.74,1.74,0,0,1,2-1.46,1.76,1.76,0,0,1,1.46,1.46l5.14,37.33a1.69,1.69,0,0,1-.36,1.28,1.75,1.75,0,0,1-1.19.64h0l-.08,0Z"/></svg>