<svg xmlns="http://www.w3.org/2000/svg" width="5.523" height="29.301" viewBox="0 0 5.523 29.301">
  <defs><style>.cls-1{fill:inherit;}</style></defs>
  <path id="绿_拷贝_3" data-name="绿 拷贝 3" class="cls-1" d="M939.232,226.08l-2.065-27.452a2.009,2.009,0,0,0-.083-.45.062.062,0,0,0-.068-.042,3.86,3.86,0,0,1-1.081,0,.061.061,0,0,0-.068.042,1.988,1.988,0,0,0-.083.45L933.72,226.08a1.622,1.622,0,0,0,.322,1.179.508.508,0,0,0,.369.178h4.13a.508.508,0,0,0,.369-.178A1.622,1.622,0,0,0,939.232,226.08Z" transform="translate(-933.715 -198.135)" fill="#26cc26"/>
</svg>
