<svg xmlns="http://www.w3.org/2000/svg" xmlns:xlink="http://www.w3.org/1999/xlink" width="22.203" height="34.587" viewBox="0 0 22.203 34.587"><defs><style>.a,.b{fill:inherit;stroke:rgba(0,0,0,0);stroke-miterlimit:10;}.b{opacity:0.67;}.c{clip-path:url(#a);}</style><clipPath id="a"><rect class="a" width="22.203" height="34.587"/></clipPath></defs><g transform="translate(-398.298 -1026.996)"><path class="b" d="M8054.069-11.349v3.7a2.474,2.474,0,0,1-2.467,2.467h-14.8v-4.934a1.237,1.237,0,0,1,1.233-1.234Zm0-11.1v8.634H8036.8v-7.4a1.237,1.237,0,0,1,1.233-1.233Zm0,0" transform="translate(-7634.802 1065.485)"/><g transform="translate(398.298 1026.996)"><g class="c"><path class="a" d="M8005.338-250.386v6.167H7985.6v-6.167a2.474,2.474,0,0,1,2.467-2.467h14.8a2.475,2.475,0,0,1,2.467,2.467Zm0,0" transform="translate(-7984.369 257.791)"/><path class="a" d="M7978.5-247.613h-14.8a3.712,3.712,0,0,1-3.7-3.7V-274.75a3.712,3.712,0,0,1,3.7-3.7h1.233a1.237,1.237,0,0,1,1.233,1.233,1.237,1.237,0,0,1-1.233,1.234H7963.7a1.237,1.237,0,0,0-1.234,1.234v23.436a1.237,1.237,0,0,0,1.234,1.234h14.8a1.237,1.237,0,0,0,1.234-1.234V-274.75a1.237,1.237,0,0,0-1.234-1.234h-1.233a1.237,1.237,0,0,1-1.233-1.234,1.237,1.237,0,0,1,1.233-1.233h1.233a3.711,3.711,0,0,1,3.7,3.7v23.436a3.711,3.711,0,0,1-3.7,3.7Zm0,0" transform="translate(-7960 282.154)"/><path class="a" d="M7977.269-349.084h-12.334a1.237,1.237,0,0,1-1.233-1.234,1.237,1.237,0,0,1,1.233-1.233,1.144,1.144,0,0,0,.851-.358,1.167,1.167,0,0,0,.383-.876,2.474,2.474,0,0,1,2.467-2.467h4.934a2.474,2.474,0,0,1,2.467,2.467,1.237,1.237,0,0,0,1.233,1.234,1.237,1.237,0,0,1,1.233,1.233,1.237,1.237,0,0,1-1.233,1.234Zm-8.844-2.467h5.354a3.7,3.7,0,0,1-.21-1.234h-4.934a3.753,3.753,0,0,1-.209,1.234Zm-3.491,11.1h-3.7a1.237,1.237,0,0,1-1.234-1.233,1.237,1.237,0,0,1,1.234-1.234h3.7a1.237,1.237,0,0,1,1.233,1.234,1.237,1.237,0,0,1-1.233,1.233Zm16.035,0h-11.1a1.237,1.237,0,0,1-1.233-1.233,1.237,1.237,0,0,1,1.233-1.234h11.1a1.237,1.237,0,0,1,1.233,1.234,1.237,1.237,0,0,1-1.233,1.233Zm-4.934,11.1h-14.8a1.237,1.237,0,0,1-1.234-1.234,1.237,1.237,0,0,1,1.234-1.234h14.8a1.237,1.237,0,0,1,1.233,1.234,1.237,1.237,0,0,1-1.233,1.234Zm0,0" transform="translate(-7960 355.255)"/></g></g></g></svg>
