<svg xmlns="http://www.w3.org/2000/svg" width="33.645" height="52.106" viewBox="0 0 33.645 52.106"><defs><style>.a{fill:#f80;}.b{fill:#fbe30c;}.c{fill:#091644;}</style></defs><g transform="translate(-1668 -301.947)"><g transform="translate(1325.272 46.447)"><path class="a" d="M32.716,28.532,19,23.032a.659.659,0,0,1-.369-.364.63.63,0,0,1,.01-.508.061.061,0,0,1,.027-.028,3.747,3.747,0,0,0,2-3.295c0-.018,0-.037,0-.055v-.031a.067.067,0,0,1,.011-.037.666.666,0,0,1,.445-.262.682.682,0,0,1,.508.13l11.74,8.831a.623.623,0,0,1,.173.843.661.661,0,0,1-.564.331A.73.73,0,0,1,32.716,28.532ZM.094,28.257a.623.623,0,0,1,.173-.843l11.74-8.831a.682.682,0,0,1,.508-.13.666.666,0,0,1,.445.262.066.066,0,0,1,.011.037v.031c0,.018,0,.037,0,.055a3.747,3.747,0,0,0,2,3.295.061.061,0,0,1,.027.028.631.631,0,0,1,.01.508.658.658,0,0,1-.369.364L.929,28.532a.73.73,0,0,1-.271.055A.661.661,0,0,1,.094,28.257Zm14.089-9.423a2.64,2.64,0,1,1,2.639,2.706A2.673,2.673,0,0,1,14.183,18.834Zm4.641-3.2a3.928,3.928,0,0,0-4,0,.062.062,0,0,1-.039.008.663.663,0,0,1-.455-.244.636.636,0,0,1-.138-.494L16.16.567a.67.67,0,0,1,1.324,0L19.457,14.9a.636.636,0,0,1-.138.494.664.664,0,0,1-.455.244h-.007A.058.058,0,0,1,18.824,15.63Z" transform="translate(342.727 255.5)"/><path class="a" d="M939.232,226.08l-2.065-27.452a2.009,2.009,0,0,0-.083-.45.062.062,0,0,0-.068-.042,3.86,3.86,0,0,1-1.081,0,.061.061,0,0,0-.068.042,1.988,1.988,0,0,0-.083.45L933.72,226.08a1.622,1.622,0,0,0,.322,1.179.508.508,0,0,0,.369.178h4.13a.508.508,0,0,0,.369-.178A1.622,1.622,0,0,0,939.232,226.08Z" transform="translate(-576.926 80.17)"/></g><g transform="matrix(0.995, 0.105, -0.105, 0.995, 1684.398, 346.644)"><g transform="translate(-12.352 -35.342)"><path class="b" d="M633.089,211.888l-1.867,1.854a1.334,1.334,0,0,1-1.867,0l-6.406-5.9a1.058,1.058,0,0,0-1.057-.247,6.709,6.709,0,0,1-8.511-7.635.767.767,0,0,1,1.29-.384l3.611,3.6a1.334,1.334,0,0,0,1.867,0L622,201.314a1.294,1.294,0,0,0,0-1.854l-3.638-3.625a.765.765,0,0,1,.371-1.291,6.742,6.742,0,0,1,7.742,8.555,1.061,1.061,0,0,0,.233,1.057l6.379,5.877a1.318,1.318,0,0,1,0,1.854Zm0,0" transform="translate(-613.27 -194.421)"/><path class="c" d="M630.294,214.623a1.835,1.835,0,0,1-1.282-.518L622.6,208.19a.519.519,0,0,0-.374-.148.7.7,0,0,0-.192.028,7.271,7.271,0,0,1-2.047.294,7.2,7.2,0,0,1-7.094-8.5,1.268,1.268,0,0,1,2.136-.647l3.61,3.6a.806.806,0,0,0,.575.235.841.841,0,0,0,.588-.237l1.851-1.851a.815.815,0,0,0,.245-.584.782.782,0,0,0-.24-.558l0,0-3.638-3.625a1.278,1.278,0,0,1-.314-1.286,1.228,1.228,0,0,1,.946-.85,7.287,7.287,0,0,1,1.38-.132,7.243,7.243,0,0,1,6.932,9.324.565.565,0,0,0,.1.553l6.385,5.883a1.82,1.82,0,0,1,.146,2.4v.02l-2.015,2A1.8,1.8,0,0,1,630.294,214.623Zm-7-7.148,6.41,5.908a.841.841,0,0,0,.59.239.806.806,0,0,0,.575-.235l1.867-1.854a.818.818,0,0,0,.006-1.14l-6.385-5.884a1.559,1.559,0,0,1-.359-1.553,6.243,6.243,0,0,0-5.975-8.037,6.294,6.294,0,0,0-1.193.114.227.227,0,0,0-.178.164.28.28,0,0,0,.066.282l3.636,3.623a1.775,1.775,0,0,1,.54,1.265,1.808,1.808,0,0,1-.538,1.3l-1.858,1.859a1.836,1.836,0,0,1-1.287.523,1.8,1.8,0,0,1-1.282-.528l-3.61-3.6a.251.251,0,0,0-.184-.076.256.256,0,0,0-.262.2,6.2,6.2,0,0,0,6.11,7.318,6.278,6.278,0,0,0,1.769-.254,1.705,1.705,0,0,1,.47-.067A1.516,1.516,0,0,1,623.295,207.475Z" transform="translate(-613.27 -194.421)"/></g></g></g></svg>